<mxfile host="Electron" modified="2023-10-09T13:23:36.439Z" agent="Mozilla/5.0 (Windows NT 10.0; Win64; x64) AppleWebKit/537.36 (KHTML, like Gecko) draw.io/22.0.2 Chrome/114.0.5735.289 Electron/25.8.4 Safari/537.36" etag="bWYI6z-flLOOQ_YAcLUs" version="22.0.2" type="device">
  <diagram id="R2lEEEUBdFMjLlhIrx00" name="Page-1">
    <mxGraphModel dx="1518" dy="731" grid="1" gridSize="10" guides="1" tooltips="1" connect="1" arrows="1" fold="1" page="1" pageScale="1" pageWidth="980" pageHeight="1390" math="0" shadow="0" extFonts="Permanent Marker^https://fonts.googleapis.com/css?family=Permanent+Marker">
      <root>
        <mxCell id="0" />
        <mxCell id="1" parent="0" />
        <mxCell id="WzNKcJt7YtytCeeVtAqV-34" value="" style="edgeStyle=orthogonalEdgeStyle;rounded=0;orthogonalLoop=1;jettySize=auto;html=1;endArrow=none;endFill=0;" parent="1" source="WzNKcJt7YtytCeeVtAqV-1" target="WzNKcJt7YtytCeeVtAqV-4" edge="1">
          <mxGeometry relative="1" as="geometry" />
        </mxCell>
        <mxCell id="WzNKcJt7YtytCeeVtAqV-1" value="Centro" style="rounded=1;arcSize=10;whiteSpace=wrap;html=1;align=center;fontSize=16;fontStyle=1" parent="1" vertex="1">
          <mxGeometry x="150" y="165" width="100" height="40" as="geometry" />
        </mxCell>
        <mxCell id="WzNKcJt7YtytCeeVtAqV-2" value="nombre" style="ellipse;whiteSpace=wrap;html=1;align=center;" parent="1" vertex="1">
          <mxGeometry x="165" y="86" width="70" height="28" as="geometry" />
        </mxCell>
        <mxCell id="WzNKcJt7YtytCeeVtAqV-3" value="id" style="ellipse;whiteSpace=wrap;html=1;align=center;fontStyle=4;" parent="1" vertex="1">
          <mxGeometry x="70" y="90" width="60" height="24" as="geometry" />
        </mxCell>
        <mxCell id="WzNKcJt7YtytCeeVtAqV-35" value="" style="edgeStyle=orthogonalEdgeStyle;rounded=0;orthogonalLoop=1;jettySize=auto;html=1;endArrow=none;endFill=0;" parent="1" source="WzNKcJt7YtytCeeVtAqV-4" target="WzNKcJt7YtytCeeVtAqV-30" edge="1">
          <mxGeometry relative="1" as="geometry" />
        </mxCell>
        <mxCell id="WzNKcJt7YtytCeeVtAqV-4" value="&lt;b&gt;&lt;font style=&quot;font-size: 22px;&quot;&gt;1,N&lt;/font&gt;&lt;/b&gt;" style="shape=rhombus;perimeter=rhombusPerimeter;whiteSpace=wrap;html=1;align=center;" parent="1" vertex="1">
          <mxGeometry x="330" y="160" width="160" height="50" as="geometry" />
        </mxCell>
        <mxCell id="WzNKcJt7YtytCeeVtAqV-222" style="edgeStyle=orthogonalEdgeStyle;rounded=0;orthogonalLoop=1;jettySize=auto;html=1;exitX=1;exitY=0.5;exitDx=0;exitDy=0;entryX=0;entryY=0.5;entryDx=0;entryDy=0;endArrow=none;endFill=0;" parent="1" source="WzNKcJt7YtytCeeVtAqV-10" target="WzNKcJt7YtytCeeVtAqV-134" edge="1">
          <mxGeometry relative="1" as="geometry" />
        </mxCell>
        <mxCell id="WzNKcJt7YtytCeeVtAqV-253" style="edgeStyle=orthogonalEdgeStyle;rounded=0;orthogonalLoop=1;jettySize=auto;html=1;exitX=0.25;exitY=1;exitDx=0;exitDy=0;entryX=1;entryY=0.5;entryDx=0;entryDy=0;endArrow=none;endFill=0;" parent="1" source="WzNKcJt7YtytCeeVtAqV-10" target="WzNKcJt7YtytCeeVtAqV-254" edge="1">
          <mxGeometry relative="1" as="geometry">
            <mxPoint x="1655" y="380" as="targetPoint" />
          </mxGeometry>
        </mxCell>
        <mxCell id="WzNKcJt7YtytCeeVtAqV-10" value="Comisión" style="rounded=1;arcSize=10;whiteSpace=wrap;html=1;align=center;fontSize=16;fontStyle=1" parent="1" vertex="1">
          <mxGeometry x="1630" y="165" width="100" height="40" as="geometry" />
        </mxCell>
        <mxCell id="WzNKcJt7YtytCeeVtAqV-17" value="Usuario" style="rounded=1;arcSize=10;whiteSpace=wrap;html=1;align=center;fontSize=16;fontStyle=1" parent="1" vertex="1">
          <mxGeometry x="630" y="1170" width="100" height="40" as="geometry" />
        </mxCell>
        <mxCell id="WzNKcJt7YtytCeeVtAqV-18" value="dirección" style="ellipse;whiteSpace=wrap;html=1;align=center;" parent="1" vertex="1">
          <mxGeometry x="270" y="86" width="70" height="28" as="geometry" />
        </mxCell>
        <mxCell id="WzNKcJt7YtytCeeVtAqV-23" value="" style="endArrow=none;html=1;rounded=0;exitX=0.5;exitY=1;exitDx=0;exitDy=0;" parent="1" source="WzNKcJt7YtytCeeVtAqV-3" target="WzNKcJt7YtytCeeVtAqV-1" edge="1">
          <mxGeometry relative="1" as="geometry">
            <mxPoint x="590" y="360" as="sourcePoint" />
            <mxPoint x="750" y="360" as="targetPoint" />
          </mxGeometry>
        </mxCell>
        <mxCell id="WzNKcJt7YtytCeeVtAqV-24" value="" style="endArrow=none;html=1;rounded=0;exitX=0.5;exitY=1;exitDx=0;exitDy=0;" parent="1" source="WzNKcJt7YtytCeeVtAqV-2" target="WzNKcJt7YtytCeeVtAqV-1" edge="1">
          <mxGeometry relative="1" as="geometry">
            <mxPoint x="110" y="124" as="sourcePoint" />
            <mxPoint x="200" y="150" as="targetPoint" />
          </mxGeometry>
        </mxCell>
        <mxCell id="WzNKcJt7YtytCeeVtAqV-25" value="" style="endArrow=none;html=1;rounded=0;exitX=0;exitY=1;exitDx=0;exitDy=0;" parent="1" source="WzNKcJt7YtytCeeVtAqV-18" target="WzNKcJt7YtytCeeVtAqV-1" edge="1">
          <mxGeometry relative="1" as="geometry">
            <mxPoint x="290" y="100" as="sourcePoint" />
            <mxPoint x="210" y="160" as="targetPoint" />
          </mxGeometry>
        </mxCell>
        <mxCell id="WzNKcJt7YtytCeeVtAqV-26" value="tipo" style="ellipse;whiteSpace=wrap;html=1;align=center;" parent="1" vertex="1">
          <mxGeometry x="50" y="160" width="70" height="28" as="geometry" />
        </mxCell>
        <mxCell id="WzNKcJt7YtytCeeVtAqV-27" value="" style="endArrow=none;html=1;rounded=0;exitX=1;exitY=0.5;exitDx=0;exitDy=0;" parent="1" source="WzNKcJt7YtytCeeVtAqV-26" target="WzNKcJt7YtytCeeVtAqV-1" edge="1">
          <mxGeometry relative="1" as="geometry">
            <mxPoint x="300" y="120" as="sourcePoint" />
            <mxPoint x="150" y="174" as="targetPoint" />
          </mxGeometry>
        </mxCell>
        <mxCell id="WzNKcJt7YtytCeeVtAqV-28" value="Director" style="rounded=1;arcSize=10;whiteSpace=wrap;html=1;align=center;fontSize=16;fontStyle=1" parent="1" vertex="1">
          <mxGeometry x="80" y="655" width="100" height="40" as="geometry" />
        </mxCell>
        <mxCell id="WzNKcJt7YtytCeeVtAqV-30" value="EquipoGobierno" style="rounded=1;arcSize=10;whiteSpace=wrap;html=1;align=center;fontSize=16;fontStyle=1" parent="1" vertex="1">
          <mxGeometry x="583" y="165" width="150" height="40" as="geometry" />
        </mxCell>
        <mxCell id="WzNKcJt7YtytCeeVtAqV-31" value="Junta" style="rounded=1;arcSize=10;whiteSpace=wrap;html=1;align=center;fontSize=16;fontStyle=1" parent="1" vertex="1">
          <mxGeometry x="1120" y="165" width="100" height="40" as="geometry" />
        </mxCell>
        <mxCell id="WzNKcJt7YtytCeeVtAqV-263" style="edgeStyle=orthogonalEdgeStyle;rounded=0;orthogonalLoop=1;jettySize=auto;html=1;exitX=0.25;exitY=1;exitDx=0;exitDy=0;entryX=1;entryY=0.5;entryDx=0;entryDy=0;endArrow=none;endFill=0;" parent="1" source="WzNKcJt7YtytCeeVtAqV-33" target="WzNKcJt7YtytCeeVtAqV-257" edge="1">
          <mxGeometry relative="1" as="geometry" />
        </mxCell>
        <mxCell id="WzNKcJt7YtytCeeVtAqV-33" value="Acta" style="rounded=1;arcSize=10;whiteSpace=wrap;html=1;align=center;fontSize=16;fontStyle=1" parent="1" vertex="1">
          <mxGeometry x="2138" y="165" width="100" height="40" as="geometry" />
        </mxCell>
        <mxCell id="WzNKcJt7YtytCeeVtAqV-36" value="(1,1)" style="text;strokeColor=none;fillColor=none;html=1;fontSize=24;fontStyle=1;verticalAlign=middle;align=center;" parent="1" vertex="1">
          <mxGeometry x="236" y="188" width="100" height="40" as="geometry" />
        </mxCell>
        <mxCell id="WzNKcJt7YtytCeeVtAqV-37" value="(0,N)" style="text;strokeColor=none;fillColor=none;html=1;fontSize=24;fontStyle=1;verticalAlign=middle;align=center;" parent="1" vertex="1">
          <mxGeometry x="490" y="188" width="100" height="40" as="geometry" />
        </mxCell>
        <mxCell id="WzNKcJt7YtytCeeVtAqV-40" value="id" style="ellipse;whiteSpace=wrap;html=1;align=center;fontStyle=4;" parent="1" vertex="1">
          <mxGeometry x="583" y="86" width="60" height="24" as="geometry" />
        </mxCell>
        <mxCell id="WzNKcJt7YtytCeeVtAqV-42" value="" style="endArrow=none;html=1;rounded=0;entryX=0.168;entryY=0.018;entryDx=0;entryDy=0;entryPerimeter=0;" parent="1" target="WzNKcJt7YtytCeeVtAqV-30" edge="1">
          <mxGeometry relative="1" as="geometry">
            <mxPoint x="610" y="110" as="sourcePoint" />
            <mxPoint x="682" y="151" as="targetPoint" />
          </mxGeometry>
        </mxCell>
        <mxCell id="WzNKcJt7YtytCeeVtAqV-43" value="fechaConstitución" style="ellipse;whiteSpace=wrap;html=1;align=center;" parent="1" vertex="1">
          <mxGeometry x="669" y="86" width="121" height="28" as="geometry" />
        </mxCell>
        <mxCell id="WzNKcJt7YtytCeeVtAqV-44" value="" style="endArrow=none;html=1;rounded=0;exitX=0;exitY=1;exitDx=0;exitDy=0;entryX=0.5;entryY=0;entryDx=0;entryDy=0;" parent="1" source="WzNKcJt7YtytCeeVtAqV-43" target="WzNKcJt7YtytCeeVtAqV-30" edge="1">
          <mxGeometry relative="1" as="geometry">
            <mxPoint x="689" y="100" as="sourcePoint" />
            <mxPoint x="610" y="165" as="targetPoint" />
          </mxGeometry>
        </mxCell>
        <mxCell id="WzNKcJt7YtytCeeVtAqV-65" value="" style="endArrow=none;html=1;rounded=0;exitX=1;exitY=0;exitDx=0;exitDy=0;" parent="1" source="WzNKcJt7YtytCeeVtAqV-68" target="WzNKcJt7YtytCeeVtAqV-17" edge="1">
          <mxGeometry relative="1" as="geometry">
            <mxPoint x="660" y="1260" as="sourcePoint" />
            <mxPoint x="640" y="1220" as="targetPoint" />
          </mxGeometry>
        </mxCell>
        <mxCell id="WzNKcJt7YtytCeeVtAqV-68" value="id" style="ellipse;whiteSpace=wrap;html=1;align=center;fontStyle=4;" parent="1" vertex="1">
          <mxGeometry x="490" y="1196" width="60" height="24" as="geometry" />
        </mxCell>
        <mxCell id="WzNKcJt7YtytCeeVtAqV-72" value="nombre" style="ellipse;whiteSpace=wrap;html=1;align=center;" parent="1" vertex="1">
          <mxGeometry x="540" y="1240" width="70" height="28" as="geometry" />
        </mxCell>
        <mxCell id="WzNKcJt7YtytCeeVtAqV-73" value="apellidos" style="ellipse;whiteSpace=wrap;html=1;align=center;" parent="1" vertex="1">
          <mxGeometry x="620" y="1252" width="70" height="28" as="geometry" />
        </mxCell>
        <mxCell id="WzNKcJt7YtytCeeVtAqV-74" value="email" style="ellipse;whiteSpace=wrap;html=1;align=center;" parent="1" vertex="1">
          <mxGeometry x="710" y="1252" width="70" height="28" as="geometry" />
        </mxCell>
        <mxCell id="WzNKcJt7YtytCeeVtAqV-75" value="password" style="ellipse;whiteSpace=wrap;html=1;align=center;" parent="1" vertex="1">
          <mxGeometry x="793" y="1230" width="70" height="28" as="geometry" />
        </mxCell>
        <mxCell id="WzNKcJt7YtytCeeVtAqV-76" value="telefono" style="ellipse;whiteSpace=wrap;html=1;align=center;" parent="1" vertex="1">
          <mxGeometry x="505" y="1142" width="70" height="28" as="geometry" />
        </mxCell>
        <mxCell id="WzNKcJt7YtytCeeVtAqV-79" value="" style="endArrow=none;html=1;rounded=0;exitX=0.5;exitY=0;exitDx=0;exitDy=0;entryX=0.25;entryY=1;entryDx=0;entryDy=0;" parent="1" source="WzNKcJt7YtytCeeVtAqV-72" target="WzNKcJt7YtytCeeVtAqV-17" edge="1">
          <mxGeometry relative="1" as="geometry">
            <mxPoint x="552" y="1210" as="sourcePoint" />
            <mxPoint x="640" y="1204" as="targetPoint" />
          </mxGeometry>
        </mxCell>
        <mxCell id="WzNKcJt7YtytCeeVtAqV-80" value="" style="endArrow=none;html=1;rounded=0;" parent="1" target="WzNKcJt7YtytCeeVtAqV-17" edge="1">
          <mxGeometry relative="1" as="geometry">
            <mxPoint x="650" y="1250" as="sourcePoint" />
            <mxPoint x="650" y="1214" as="targetPoint" />
          </mxGeometry>
        </mxCell>
        <mxCell id="WzNKcJt7YtytCeeVtAqV-81" value="" style="endArrow=none;html=1;rounded=0;exitX=0.5;exitY=0;exitDx=0;exitDy=0;entryX=0.75;entryY=1;entryDx=0;entryDy=0;" parent="1" source="WzNKcJt7YtytCeeVtAqV-74" target="WzNKcJt7YtytCeeVtAqV-17" edge="1">
          <mxGeometry relative="1" as="geometry">
            <mxPoint x="572" y="1230" as="sourcePoint" />
            <mxPoint x="660" y="1224" as="targetPoint" />
          </mxGeometry>
        </mxCell>
        <mxCell id="WzNKcJt7YtytCeeVtAqV-82" value="" style="endArrow=none;html=1;rounded=0;exitX=1;exitY=0.75;exitDx=0;exitDy=0;entryX=0;entryY=0;entryDx=0;entryDy=0;" parent="1" source="WzNKcJt7YtytCeeVtAqV-17" target="WzNKcJt7YtytCeeVtAqV-75" edge="1">
          <mxGeometry relative="1" as="geometry">
            <mxPoint x="582" y="1240" as="sourcePoint" />
            <mxPoint x="670" y="1234" as="targetPoint" />
          </mxGeometry>
        </mxCell>
        <mxCell id="WzNKcJt7YtytCeeVtAqV-83" value="" style="endArrow=none;html=1;rounded=0;" parent="1" source="WzNKcJt7YtytCeeVtAqV-17" edge="1">
          <mxGeometry relative="1" as="geometry">
            <mxPoint x="592" y="1250" as="sourcePoint" />
            <mxPoint x="570" y="1160" as="targetPoint" />
          </mxGeometry>
        </mxCell>
        <mxCell id="WzNKcJt7YtytCeeVtAqV-87" style="edgeStyle=orthogonalEdgeStyle;rounded=0;orthogonalLoop=1;jettySize=auto;html=1;exitX=1;exitY=0.5;exitDx=0;exitDy=0;entryX=0.5;entryY=1;entryDx=0;entryDy=0;endArrow=none;endFill=0;" parent="1" source="WzNKcJt7YtytCeeVtAqV-84" target="WzNKcJt7YtytCeeVtAqV-28" edge="1">
          <mxGeometry relative="1" as="geometry" />
        </mxCell>
        <mxCell id="WzNKcJt7YtytCeeVtAqV-84" value="" style="triangle;whiteSpace=wrap;html=1;rotation=-90;" parent="1" vertex="1">
          <mxGeometry x="279.5" y="816" width="60" height="80" as="geometry" />
        </mxCell>
        <mxCell id="WzNKcJt7YtytCeeVtAqV-92" value="Secretario" style="rounded=1;arcSize=10;whiteSpace=wrap;html=1;align=center;fontSize=16;fontStyle=1" parent="1" vertex="1">
          <mxGeometry x="191" y="655" width="100" height="40" as="geometry" />
        </mxCell>
        <mxCell id="WzNKcJt7YtytCeeVtAqV-94" style="edgeStyle=orthogonalEdgeStyle;rounded=0;orthogonalLoop=1;jettySize=auto;html=1;exitX=1;exitY=0.5;exitDx=0;exitDy=0;entryX=0.5;entryY=1;entryDx=0;entryDy=0;endArrow=none;endFill=0;" parent="1" source="WzNKcJt7YtytCeeVtAqV-84" target="WzNKcJt7YtytCeeVtAqV-92" edge="1">
          <mxGeometry relative="1" as="geometry">
            <mxPoint x="247.5" y="758" as="sourcePoint" />
            <mxPoint x="127.5" y="708" as="targetPoint" />
          </mxGeometry>
        </mxCell>
        <mxCell id="WzNKcJt7YtytCeeVtAqV-95" value="" style="edgeStyle=orthogonalEdgeStyle;rounded=0;orthogonalLoop=1;jettySize=auto;html=1;endArrow=none;endFill=0;" parent="1" target="WzNKcJt7YtytCeeVtAqV-97" edge="1">
          <mxGeometry relative="1" as="geometry">
            <mxPoint x="730" y="185" as="sourcePoint" />
          </mxGeometry>
        </mxCell>
        <mxCell id="WzNKcJt7YtytCeeVtAqV-96" value="" style="edgeStyle=orthogonalEdgeStyle;rounded=0;orthogonalLoop=1;jettySize=auto;html=1;endArrow=none;endFill=0;" parent="1" source="WzNKcJt7YtytCeeVtAqV-97" target="WzNKcJt7YtytCeeVtAqV-31" edge="1">
          <mxGeometry relative="1" as="geometry">
            <mxPoint x="1070" y="185" as="targetPoint" />
          </mxGeometry>
        </mxCell>
        <mxCell id="WzNKcJt7YtytCeeVtAqV-97" value="&lt;b&gt;&lt;font style=&quot;font-size: 22px;&quot;&gt;1,1&lt;/font&gt;&lt;/b&gt;" style="shape=rhombus;perimeter=rhombusPerimeter;whiteSpace=wrap;html=1;align=center;" parent="1" vertex="1">
          <mxGeometry x="840" y="160" width="160" height="50" as="geometry" />
        </mxCell>
        <mxCell id="WzNKcJt7YtytCeeVtAqV-98" value="(1,1)" style="text;strokeColor=none;fillColor=none;html=1;fontSize=24;fontStyle=1;verticalAlign=middle;align=center;" parent="1" vertex="1">
          <mxGeometry x="723" y="188" width="100" height="40" as="geometry" />
        </mxCell>
        <mxCell id="WzNKcJt7YtytCeeVtAqV-99" value="(1,1)" style="text;strokeColor=none;fillColor=none;html=1;fontSize=24;fontStyle=1;verticalAlign=middle;align=center;" parent="1" vertex="1">
          <mxGeometry x="1030" y="188" width="100" height="40" as="geometry" />
        </mxCell>
        <mxCell id="WzNKcJt7YtytCeeVtAqV-101" value="fechaConstitución" style="ellipse;whiteSpace=wrap;html=1;align=center;" parent="1" vertex="1">
          <mxGeometry x="1130" y="84" width="121" height="28" as="geometry" />
        </mxCell>
        <mxCell id="WzNKcJt7YtytCeeVtAqV-102" value="" style="endArrow=none;html=1;rounded=0;entryX=0.5;entryY=0;entryDx=0;entryDy=0;" parent="1" source="WzNKcJt7YtytCeeVtAqV-101" target="WzNKcJt7YtytCeeVtAqV-31" edge="1">
          <mxGeometry relative="1" as="geometry">
            <mxPoint x="1185" y="100" as="sourcePoint" />
            <mxPoint x="1154" y="165" as="targetPoint" />
          </mxGeometry>
        </mxCell>
        <mxCell id="WzNKcJt7YtytCeeVtAqV-169" style="edgeStyle=orthogonalEdgeStyle;rounded=0;orthogonalLoop=1;jettySize=auto;html=1;exitX=0.5;exitY=1;exitDx=0;exitDy=0;entryX=1;entryY=0.5;entryDx=0;entryDy=0;endArrow=none;endFill=0;" parent="1" source="WzNKcJt7YtytCeeVtAqV-104" target="WzNKcJt7YtytCeeVtAqV-192" edge="1">
          <mxGeometry relative="1" as="geometry" />
        </mxCell>
        <mxCell id="WzNKcJt7YtytCeeVtAqV-104" value="Subdirector" style="rounded=1;arcSize=10;whiteSpace=wrap;html=1;align=center;fontSize=16;fontStyle=1" parent="1" vertex="1">
          <mxGeometry x="380" y="390" width="100" height="40" as="geometry" />
        </mxCell>
        <mxCell id="WzNKcJt7YtytCeeVtAqV-170" style="edgeStyle=orthogonalEdgeStyle;rounded=0;orthogonalLoop=1;jettySize=auto;html=1;exitX=0.5;exitY=1;exitDx=0;exitDy=0;entryX=1;entryY=0.5;entryDx=0;entryDy=0;endArrow=none;endFill=0;" parent="1" source="WzNKcJt7YtytCeeVtAqV-105" target="WzNKcJt7YtytCeeVtAqV-192" edge="1">
          <mxGeometry relative="1" as="geometry">
            <mxPoint x="325.25" y="638" as="targetPoint" />
          </mxGeometry>
        </mxCell>
        <mxCell id="WzNKcJt7YtytCeeVtAqV-105" value="Secretaría Dirección" style="rounded=1;arcSize=10;whiteSpace=wrap;html=1;align=center;fontSize=16;fontStyle=1" parent="1" vertex="1">
          <mxGeometry x="490" y="390" width="100" height="40" as="geometry" />
        </mxCell>
        <mxCell id="WzNKcJt7YtytCeeVtAqV-110" style="edgeStyle=orthogonalEdgeStyle;rounded=0;orthogonalLoop=1;jettySize=auto;html=1;exitX=1;exitY=0.5;exitDx=0;exitDy=0;entryX=0.25;entryY=1;entryDx=0;entryDy=0;endArrow=none;endFill=0;" parent="1" source="WzNKcJt7YtytCeeVtAqV-108" target="WzNKcJt7YtytCeeVtAqV-30" edge="1">
          <mxGeometry relative="1" as="geometry" />
        </mxCell>
        <mxCell id="WzNKcJt7YtytCeeVtAqV-171" style="edgeStyle=orthogonalEdgeStyle;rounded=0;orthogonalLoop=1;jettySize=auto;html=1;exitX=0;exitY=0.5;exitDx=0;exitDy=0;entryX=0.5;entryY=0;entryDx=0;entryDy=0;" parent="1" source="WzNKcJt7YtytCeeVtAqV-108" target="WzNKcJt7YtytCeeVtAqV-28" edge="1">
          <mxGeometry relative="1" as="geometry" />
        </mxCell>
        <mxCell id="WzNKcJt7YtytCeeVtAqV-108" value="&lt;b&gt;&lt;font style=&quot;font-size: 22px;&quot;&gt;1,1&lt;/font&gt;&lt;/b&gt;" style="shape=rhombus;perimeter=rhombusPerimeter;whiteSpace=wrap;html=1;align=center;rotation=-55;" parent="1" vertex="1">
          <mxGeometry x="100" y="320" width="160" height="50" as="geometry" />
        </mxCell>
        <mxCell id="WzNKcJt7YtytCeeVtAqV-113" style="edgeStyle=orthogonalEdgeStyle;rounded=0;orthogonalLoop=1;jettySize=auto;html=1;exitX=1;exitY=0.5;exitDx=0;exitDy=0;entryX=0.5;entryY=1;entryDx=0;entryDy=0;endArrow=none;endFill=0;" parent="1" source="WzNKcJt7YtytCeeVtAqV-111" target="WzNKcJt7YtytCeeVtAqV-30" edge="1">
          <mxGeometry relative="1" as="geometry">
            <Array as="points">
              <mxPoint x="640" y="328" />
              <mxPoint x="640" y="205" />
            </Array>
          </mxGeometry>
        </mxCell>
        <mxCell id="WzNKcJt7YtytCeeVtAqV-172" style="edgeStyle=orthogonalEdgeStyle;rounded=0;orthogonalLoop=1;jettySize=auto;html=1;exitX=0;exitY=0.5;exitDx=0;exitDy=0;entryX=0.5;entryY=0;entryDx=0;entryDy=0;" parent="1" source="WzNKcJt7YtytCeeVtAqV-111" target="WzNKcJt7YtytCeeVtAqV-92" edge="1">
          <mxGeometry relative="1" as="geometry" />
        </mxCell>
        <mxCell id="WzNKcJt7YtytCeeVtAqV-111" value="&lt;b&gt;&lt;font style=&quot;font-size: 22px;&quot;&gt;1,1&lt;/font&gt;&lt;/b&gt;" style="shape=rhombus;perimeter=rhombusPerimeter;whiteSpace=wrap;html=1;align=center;rotation=-45;" parent="1" vertex="1">
          <mxGeometry x="225" y="360" width="160" height="50" as="geometry" />
        </mxCell>
        <mxCell id="WzNKcJt7YtytCeeVtAqV-206" style="edgeStyle=orthogonalEdgeStyle;rounded=0;orthogonalLoop=1;jettySize=auto;html=1;exitX=1;exitY=0.5;exitDx=0;exitDy=0;entryX=0.75;entryY=1;entryDx=0;entryDy=0;endArrow=none;endFill=0;" parent="1" source="WzNKcJt7YtytCeeVtAqV-120" target="WzNKcJt7YtytCeeVtAqV-30" edge="1">
          <mxGeometry relative="1" as="geometry" />
        </mxCell>
        <mxCell id="WzNKcJt7YtytCeeVtAqV-207" style="edgeStyle=orthogonalEdgeStyle;rounded=0;orthogonalLoop=1;jettySize=auto;html=1;exitX=0;exitY=0.5;exitDx=0;exitDy=0;entryX=1;entryY=0.5;entryDx=0;entryDy=0;endArrow=none;endFill=0;" parent="1" source="WzNKcJt7YtytCeeVtAqV-120" target="WzNKcJt7YtytCeeVtAqV-195" edge="1">
          <mxGeometry relative="1" as="geometry" />
        </mxCell>
        <mxCell id="WzNKcJt7YtytCeeVtAqV-120" value="&lt;b&gt;&lt;font style=&quot;font-size: 22px;&quot;&gt;N,M&lt;/font&gt;&lt;/b&gt;" style="shape=rhombus;perimeter=rhombusPerimeter;whiteSpace=wrap;html=1;align=center;rotation=-90;" parent="1" vertex="1">
          <mxGeometry x="610" y="380" width="160" height="50" as="geometry" />
        </mxCell>
        <mxCell id="WzNKcJt7YtytCeeVtAqV-121" value="" style="edgeStyle=orthogonalEdgeStyle;rounded=0;orthogonalLoop=1;jettySize=auto;html=1;endArrow=none;endFill=0;exitX=1;exitY=0.5;exitDx=0;exitDy=0;" parent="1" source="WzNKcJt7YtytCeeVtAqV-31" target="WzNKcJt7YtytCeeVtAqV-123" edge="1">
          <mxGeometry relative="1" as="geometry">
            <mxPoint x="1210" y="185" as="sourcePoint" />
          </mxGeometry>
        </mxCell>
        <mxCell id="WzNKcJt7YtytCeeVtAqV-122" value="" style="edgeStyle=orthogonalEdgeStyle;rounded=0;orthogonalLoop=1;jettySize=auto;html=1;endArrow=none;endFill=0;entryX=0;entryY=0.5;entryDx=0;entryDy=0;" parent="1" source="WzNKcJt7YtytCeeVtAqV-123" target="WzNKcJt7YtytCeeVtAqV-10" edge="1">
          <mxGeometry relative="1" as="geometry">
            <mxPoint x="1617" y="185" as="targetPoint" />
          </mxGeometry>
        </mxCell>
        <mxCell id="WzNKcJt7YtytCeeVtAqV-123" value="&lt;b&gt;&lt;font style=&quot;font-size: 22px;&quot;&gt;1,N&lt;/font&gt;&lt;/b&gt;" style="shape=rhombus;perimeter=rhombusPerimeter;whiteSpace=wrap;html=1;align=center;" parent="1" vertex="1">
          <mxGeometry x="1337" y="160" width="160" height="50" as="geometry" />
        </mxCell>
        <mxCell id="WzNKcJt7YtytCeeVtAqV-124" value="(1,1)" style="text;strokeColor=none;fillColor=none;html=1;fontSize=24;fontStyle=1;verticalAlign=middle;align=center;" parent="1" vertex="1">
          <mxGeometry x="1220" y="188" width="100" height="40" as="geometry" />
        </mxCell>
        <mxCell id="WzNKcJt7YtytCeeVtAqV-125" value="(0,N)" style="text;strokeColor=none;fillColor=none;html=1;fontSize=24;fontStyle=1;verticalAlign=middle;align=center;" parent="1" vertex="1">
          <mxGeometry x="1550" y="188" width="100" height="40" as="geometry" />
        </mxCell>
        <mxCell id="WzNKcJt7YtytCeeVtAqV-131" style="edgeStyle=orthogonalEdgeStyle;rounded=0;orthogonalLoop=1;jettySize=auto;html=1;exitX=0.5;exitY=1;exitDx=0;exitDy=0;entryX=0.25;entryY=0;entryDx=0;entryDy=0;endArrow=none;endFill=0;" parent="1" source="WzNKcJt7YtytCeeVtAqV-126" target="WzNKcJt7YtytCeeVtAqV-10" edge="1">
          <mxGeometry relative="1" as="geometry" />
        </mxCell>
        <mxCell id="WzNKcJt7YtytCeeVtAqV-126" value="id" style="ellipse;whiteSpace=wrap;html=1;align=center;fontStyle=4;" parent="1" vertex="1">
          <mxGeometry x="1540" y="90" width="60" height="24" as="geometry" />
        </mxCell>
        <mxCell id="WzNKcJt7YtytCeeVtAqV-133" style="edgeStyle=orthogonalEdgeStyle;rounded=0;orthogonalLoop=1;jettySize=auto;html=1;exitX=0.5;exitY=1;exitDx=0;exitDy=0;entryX=0.75;entryY=0;entryDx=0;entryDy=0;endArrow=none;endFill=0;" parent="1" source="WzNKcJt7YtytCeeVtAqV-127" target="WzNKcJt7YtytCeeVtAqV-10" edge="1">
          <mxGeometry relative="1" as="geometry" />
        </mxCell>
        <mxCell id="WzNKcJt7YtytCeeVtAqV-127" value="fechaConstitución" style="ellipse;whiteSpace=wrap;html=1;align=center;" parent="1" vertex="1">
          <mxGeometry x="1750" y="90" width="121" height="28" as="geometry" />
        </mxCell>
        <mxCell id="WzNKcJt7YtytCeeVtAqV-132" style="edgeStyle=orthogonalEdgeStyle;rounded=0;orthogonalLoop=1;jettySize=auto;html=1;exitX=0.5;exitY=1;exitDx=0;exitDy=0;entryX=0.5;entryY=0;entryDx=0;entryDy=0;endArrow=none;endFill=0;" parent="1" source="WzNKcJt7YtytCeeVtAqV-130" target="WzNKcJt7YtytCeeVtAqV-10" edge="1">
          <mxGeometry relative="1" as="geometry" />
        </mxCell>
        <mxCell id="WzNKcJt7YtytCeeVtAqV-130" value="nombre" style="ellipse;whiteSpace=wrap;html=1;align=center;" parent="1" vertex="1">
          <mxGeometry x="1620" y="90" width="121" height="28" as="geometry" />
        </mxCell>
        <mxCell id="WzNKcJt7YtytCeeVtAqV-223" style="edgeStyle=orthogonalEdgeStyle;rounded=0;orthogonalLoop=1;jettySize=auto;html=1;exitX=1;exitY=0.5;exitDx=0;exitDy=0;entryX=0;entryY=0.5;entryDx=0;entryDy=0;endArrow=none;endFill=0;" parent="1" source="WzNKcJt7YtytCeeVtAqV-134" target="WzNKcJt7YtytCeeVtAqV-33" edge="1">
          <mxGeometry relative="1" as="geometry">
            <Array as="points">
              <mxPoint x="2090" y="185" />
              <mxPoint x="2090" y="185" />
            </Array>
          </mxGeometry>
        </mxCell>
        <mxCell id="WzNKcJt7YtytCeeVtAqV-134" value="&lt;b&gt;&lt;font style=&quot;font-size: 22px;&quot;&gt;N,1&lt;/font&gt;&lt;/b&gt;" style="shape=rhombus;perimeter=rhombusPerimeter;whiteSpace=wrap;html=1;align=center;rotation=0;" parent="1" vertex="1">
          <mxGeometry x="1880" y="160" width="160" height="50" as="geometry" />
        </mxCell>
        <mxCell id="WzNKcJt7YtytCeeVtAqV-137" value="(1,1)" style="text;strokeColor=none;fillColor=none;html=1;fontSize=24;fontStyle=1;verticalAlign=middle;align=center;rotation=0;" parent="1" vertex="1">
          <mxGeometry x="1730" y="188" width="100" height="40" as="geometry" />
        </mxCell>
        <mxCell id="WzNKcJt7YtytCeeVtAqV-220" style="edgeStyle=orthogonalEdgeStyle;rounded=0;orthogonalLoop=1;jettySize=auto;html=1;exitX=0.5;exitY=1;exitDx=0;exitDy=0;entryX=0;entryY=0;entryDx=0;entryDy=0;endArrow=none;endFill=0;" parent="1" source="WzNKcJt7YtytCeeVtAqV-139" target="WzNKcJt7YtytCeeVtAqV-33" edge="1">
          <mxGeometry relative="1" as="geometry" />
        </mxCell>
        <mxCell id="WzNKcJt7YtytCeeVtAqV-139" value="id" style="ellipse;whiteSpace=wrap;html=1;align=center;fontStyle=4;" parent="1" vertex="1">
          <mxGeometry x="2100" y="60" width="60" height="24" as="geometry" />
        </mxCell>
        <mxCell id="WzNKcJt7YtytCeeVtAqV-259" style="edgeStyle=orthogonalEdgeStyle;rounded=0;orthogonalLoop=1;jettySize=auto;html=1;exitX=0;exitY=0.5;exitDx=0;exitDy=0;entryX=1;entryY=0;entryDx=0;entryDy=0;endArrow=none;endFill=0;" parent="1" source="WzNKcJt7YtytCeeVtAqV-140" target="WzNKcJt7YtytCeeVtAqV-33" edge="1">
          <mxGeometry relative="1" as="geometry">
            <Array as="points">
              <mxPoint x="2360" y="110" />
              <mxPoint x="2238" y="110" />
            </Array>
          </mxGeometry>
        </mxCell>
        <mxCell id="WzNKcJt7YtytCeeVtAqV-140" value="fecha" style="ellipse;whiteSpace=wrap;html=1;align=center;" parent="1" vertex="1">
          <mxGeometry x="2329" y="58" width="121" height="28" as="geometry" />
        </mxCell>
        <mxCell id="WzNKcJt7YtytCeeVtAqV-221" style="edgeStyle=orthogonalEdgeStyle;rounded=0;orthogonalLoop=1;jettySize=auto;html=1;exitX=0.5;exitY=1;exitDx=0;exitDy=0;endArrow=none;endFill=0;entryX=0.25;entryY=0;entryDx=0;entryDy=0;" parent="1" source="WzNKcJt7YtytCeeVtAqV-141" target="WzNKcJt7YtytCeeVtAqV-33" edge="1">
          <mxGeometry relative="1" as="geometry">
            <mxPoint x="2230" y="160" as="targetPoint" />
          </mxGeometry>
        </mxCell>
        <mxCell id="WzNKcJt7YtytCeeVtAqV-141" value="asunto" style="ellipse;whiteSpace=wrap;html=1;align=center;" parent="1" vertex="1">
          <mxGeometry x="2170" y="58" width="121" height="28" as="geometry" />
        </mxCell>
        <mxCell id="WzNKcJt7YtytCeeVtAqV-150" style="edgeStyle=orthogonalEdgeStyle;rounded=0;orthogonalLoop=1;jettySize=auto;html=1;exitX=0;exitY=0;exitDx=0;exitDy=0;endArrow=none;endFill=0;" parent="1" source="WzNKcJt7YtytCeeVtAqV-143" edge="1">
          <mxGeometry relative="1" as="geometry">
            <mxPoint x="2238" y="205" as="targetPoint" />
            <Array as="points">
              <mxPoint x="2378" y="267" />
              <mxPoint x="2378" y="235" />
              <mxPoint x="2238" y="235" />
            </Array>
          </mxGeometry>
        </mxCell>
        <mxCell id="WzNKcJt7YtytCeeVtAqV-143" value="texto" style="ellipse;whiteSpace=wrap;html=1;align=center;" parent="1" vertex="1">
          <mxGeometry x="2329" y="263" width="121" height="28" as="geometry" />
        </mxCell>
        <mxCell id="WzNKcJt7YtytCeeVtAqV-262" style="edgeStyle=orthogonalEdgeStyle;rounded=0;orthogonalLoop=1;jettySize=auto;html=1;exitX=0;exitY=0;exitDx=0;exitDy=0;entryX=0.75;entryY=1;entryDx=0;entryDy=0;endArrow=none;endFill=0;" parent="1" source="WzNKcJt7YtytCeeVtAqV-144" target="WzNKcJt7YtytCeeVtAqV-33" edge="1">
          <mxGeometry relative="1" as="geometry" />
        </mxCell>
        <mxCell id="WzNKcJt7YtytCeeVtAqV-144" value="hora" style="ellipse;whiteSpace=wrap;html=1;align=center;" parent="1" vertex="1">
          <mxGeometry x="2208" y="291" width="121" height="28" as="geometry" />
        </mxCell>
        <mxCell id="WzNKcJt7YtytCeeVtAqV-147" style="edgeStyle=orthogonalEdgeStyle;rounded=0;orthogonalLoop=1;jettySize=auto;html=1;exitX=0;exitY=0.5;exitDx=0;exitDy=0;entryX=1;entryY=0.25;entryDx=0;entryDy=0;endArrow=none;endFill=0;" parent="1" source="WzNKcJt7YtytCeeVtAqV-145" target="WzNKcJt7YtytCeeVtAqV-33" edge="1">
          <mxGeometry relative="1" as="geometry" />
        </mxCell>
        <mxCell id="WzNKcJt7YtytCeeVtAqV-145" value="estado" style="ellipse;whiteSpace=wrap;html=1;align=center;" parent="1" vertex="1">
          <mxGeometry x="2308" y="127" width="121" height="28" as="geometry" />
        </mxCell>
        <mxCell id="WzNKcJt7YtytCeeVtAqV-148" style="edgeStyle=orthogonalEdgeStyle;rounded=0;orthogonalLoop=1;jettySize=auto;html=1;exitX=0;exitY=0.5;exitDx=0;exitDy=0;entryX=1;entryY=0.75;entryDx=0;entryDy=0;endArrow=none;endFill=0;" parent="1" source="WzNKcJt7YtytCeeVtAqV-146" target="WzNKcJt7YtytCeeVtAqV-33" edge="1">
          <mxGeometry relative="1" as="geometry" />
        </mxCell>
        <mxCell id="WzNKcJt7YtytCeeVtAqV-146" value="tipo" style="ellipse;whiteSpace=wrap;html=1;align=center;" parent="1" vertex="1">
          <mxGeometry x="2308" y="195" width="121" height="28" as="geometry" />
        </mxCell>
        <mxCell id="WzNKcJt7YtytCeeVtAqV-168" style="edgeStyle=orthogonalEdgeStyle;rounded=0;orthogonalLoop=1;jettySize=auto;html=1;exitX=0.5;exitY=0;exitDx=0;exitDy=0;entryX=0;entryY=0.5;entryDx=0;entryDy=0;endArrow=none;endFill=0;" parent="1" source="WzNKcJt7YtytCeeVtAqV-157" target="WzNKcJt7YtytCeeVtAqV-84" edge="1">
          <mxGeometry relative="1" as="geometry" />
        </mxCell>
        <mxCell id="WzNKcJt7YtytCeeVtAqV-157" value="MiembroGobierno" style="rounded=1;arcSize=10;whiteSpace=wrap;html=1;align=center;fontSize=16;fontStyle=1" parent="1" vertex="1">
          <mxGeometry x="250" y="978" width="150" height="40" as="geometry" />
        </mxCell>
        <mxCell id="WzNKcJt7YtytCeeVtAqV-158" style="edgeStyle=orthogonalEdgeStyle;rounded=0;orthogonalLoop=1;jettySize=auto;html=1;exitX=1;exitY=0.5;exitDx=0;exitDy=0;entryX=0.5;entryY=1;entryDx=0;entryDy=0;endArrow=none;endFill=0;" parent="1" source="WzNKcJt7YtytCeeVtAqV-159" target="WzNKcJt7YtytCeeVtAqV-157" edge="1">
          <mxGeometry relative="1" as="geometry" />
        </mxCell>
        <mxCell id="WzNKcJt7YtytCeeVtAqV-167" style="edgeStyle=orthogonalEdgeStyle;rounded=0;orthogonalLoop=1;jettySize=auto;html=1;exitX=0;exitY=0.5;exitDx=0;exitDy=0;entryX=0.5;entryY=0;entryDx=0;entryDy=0;endArrow=none;endFill=0;" parent="1" source="WzNKcJt7YtytCeeVtAqV-159" target="WzNKcJt7YtytCeeVtAqV-17" edge="1">
          <mxGeometry relative="1" as="geometry" />
        </mxCell>
        <mxCell id="WzNKcJt7YtytCeeVtAqV-159" value="" style="triangle;whiteSpace=wrap;html=1;rotation=-90;" parent="1" vertex="1">
          <mxGeometry x="650" y="1060" width="60" height="80" as="geometry" />
        </mxCell>
        <mxCell id="WzNKcJt7YtytCeeVtAqV-164" style="edgeStyle=orthogonalEdgeStyle;rounded=0;orthogonalLoop=1;jettySize=auto;html=1;exitX=0.5;exitY=1;exitDx=0;exitDy=0;endArrow=none;endFill=0;entryX=1;entryY=0.5;entryDx=0;entryDy=0;" parent="1" source="WzNKcJt7YtytCeeVtAqV-162" target="WzNKcJt7YtytCeeVtAqV-159" edge="1">
          <mxGeometry relative="1" as="geometry">
            <mxPoint x="590" y="910" as="targetPoint" />
            <Array as="points">
              <mxPoint x="1061" y="905" />
              <mxPoint x="1061" y="1040" />
              <mxPoint x="680" y="1040" />
            </Array>
          </mxGeometry>
        </mxCell>
        <mxCell id="WzNKcJt7YtytCeeVtAqV-190" style="edgeStyle=orthogonalEdgeStyle;rounded=0;orthogonalLoop=1;jettySize=auto;html=1;exitX=0.5;exitY=0;exitDx=0;exitDy=0;entryX=1;entryY=1;entryDx=0;entryDy=0;endArrow=none;endFill=0;" parent="1" source="WzNKcJt7YtytCeeVtAqV-162" target="WzNKcJt7YtytCeeVtAqV-189" edge="1">
          <mxGeometry relative="1" as="geometry" />
        </mxCell>
        <mxCell id="WzNKcJt7YtytCeeVtAqV-162" value="MiembroJunta" style="rounded=1;arcSize=10;whiteSpace=wrap;html=1;align=center;fontSize=16;fontStyle=1" parent="1" vertex="1">
          <mxGeometry x="1010.75" y="865" width="129.25" height="40" as="geometry" />
        </mxCell>
        <mxCell id="WzNKcJt7YtytCeeVtAqV-165" style="edgeStyle=orthogonalEdgeStyle;rounded=0;orthogonalLoop=1;jettySize=auto;html=1;exitX=0.5;exitY=1;exitDx=0;exitDy=0;endArrow=none;endFill=0;" parent="1" source="WzNKcJt7YtytCeeVtAqV-163" target="WzNKcJt7YtytCeeVtAqV-159" edge="1">
          <mxGeometry relative="1" as="geometry">
            <mxPoint x="600" y="920" as="targetPoint" />
            <Array as="points">
              <mxPoint x="1420" y="1040" />
              <mxPoint x="680" y="1040" />
            </Array>
          </mxGeometry>
        </mxCell>
        <mxCell id="WzNKcJt7YtytCeeVtAqV-236" style="edgeStyle=orthogonalEdgeStyle;rounded=0;orthogonalLoop=1;jettySize=auto;html=1;exitX=0.5;exitY=0;exitDx=0;exitDy=0;entryX=0;entryY=1;entryDx=0;entryDy=0;endArrow=none;endFill=0;" parent="1" source="WzNKcJt7YtytCeeVtAqV-163" edge="1">
          <mxGeometry relative="1" as="geometry">
            <mxPoint x="1414.1789321881351" y="734.0710678118649" as="targetPoint" />
          </mxGeometry>
        </mxCell>
        <mxCell id="WzNKcJt7YtytCeeVtAqV-163" value="MiembroComisión" style="rounded=1;arcSize=10;whiteSpace=wrap;html=1;align=center;fontSize=16;fontStyle=1" parent="1" vertex="1">
          <mxGeometry x="1327" y="856" width="180" height="40" as="geometry" />
        </mxCell>
        <mxCell id="WzNKcJt7YtytCeeVtAqV-180" value="Profesorado" style="rounded=1;arcSize=10;whiteSpace=wrap;html=1;align=center;fontSize=16;fontStyle=1" parent="1" vertex="1">
          <mxGeometry x="782.25" y="578" width="100" height="40" as="geometry" />
        </mxCell>
        <mxCell id="WzNKcJt7YtytCeeVtAqV-181" style="edgeStyle=orthogonalEdgeStyle;rounded=0;orthogonalLoop=1;jettySize=auto;html=1;exitX=1;exitY=0.5;exitDx=0;exitDy=0;entryX=0.5;entryY=1;entryDx=0;entryDy=0;endArrow=none;endFill=0;" parent="1" source="WzNKcJt7YtytCeeVtAqV-182" target="WzNKcJt7YtytCeeVtAqV-180" edge="1">
          <mxGeometry relative="1" as="geometry" />
        </mxCell>
        <mxCell id="WzNKcJt7YtytCeeVtAqV-182" value="" style="triangle;whiteSpace=wrap;html=1;rotation=-90;" parent="1" vertex="1">
          <mxGeometry x="915.5" y="662" width="60" height="80" as="geometry" />
        </mxCell>
        <mxCell id="WzNKcJt7YtytCeeVtAqV-183" value="PAS" style="rounded=1;arcSize=10;whiteSpace=wrap;html=1;align=center;fontSize=16;fontStyle=1" parent="1" vertex="1">
          <mxGeometry x="893.25" y="578" width="100" height="40" as="geometry" />
        </mxCell>
        <mxCell id="WzNKcJt7YtytCeeVtAqV-184" style="edgeStyle=orthogonalEdgeStyle;rounded=0;orthogonalLoop=1;jettySize=auto;html=1;exitX=1;exitY=0.5;exitDx=0;exitDy=0;entryX=0.5;entryY=1;entryDx=0;entryDy=0;endArrow=none;endFill=0;" parent="1" source="WzNKcJt7YtytCeeVtAqV-182" target="WzNKcJt7YtytCeeVtAqV-183" edge="1">
          <mxGeometry relative="1" as="geometry">
            <mxPoint x="881" y="678" as="sourcePoint" />
            <mxPoint x="761" y="628" as="targetPoint" />
          </mxGeometry>
        </mxCell>
        <mxCell id="WzNKcJt7YtytCeeVtAqV-185" style="edgeStyle=orthogonalEdgeStyle;rounded=0;orthogonalLoop=1;jettySize=auto;html=1;exitX=0.5;exitY=1;exitDx=0;exitDy=0;entryX=1;entryY=0.5;entryDx=0;entryDy=0;endArrow=none;endFill=0;" parent="1" source="WzNKcJt7YtytCeeVtAqV-186" target="WzNKcJt7YtytCeeVtAqV-182" edge="1">
          <mxGeometry relative="1" as="geometry" />
        </mxCell>
        <mxCell id="WzNKcJt7YtytCeeVtAqV-186" value="Alumno" style="rounded=1;arcSize=10;whiteSpace=wrap;html=1;align=center;fontSize=16;fontStyle=1" parent="1" vertex="1">
          <mxGeometry x="1010.75" y="578" width="100" height="40" as="geometry" />
        </mxCell>
        <mxCell id="WzNKcJt7YtytCeeVtAqV-189" value="" style="ellipse;whiteSpace=wrap;html=1;" parent="1" vertex="1">
          <mxGeometry x="933.5" y="718" width="20" height="20" as="geometry" />
        </mxCell>
        <mxCell id="WzNKcJt7YtytCeeVtAqV-192" value="" style="triangle;whiteSpace=wrap;html=1;rotation=-90;" parent="1" vertex="1">
          <mxGeometry x="429.12" y="520" width="70" height="80" as="geometry" />
        </mxCell>
        <mxCell id="WzNKcJt7YtytCeeVtAqV-201" style="edgeStyle=orthogonalEdgeStyle;rounded=0;orthogonalLoop=1;jettySize=auto;html=1;exitX=0.5;exitY=1;exitDx=0;exitDy=0;entryX=1;entryY=0.5;entryDx=0;entryDy=0;endArrow=none;endFill=0;" parent="1" source="WzNKcJt7YtytCeeVtAqV-195" target="WzNKcJt7YtytCeeVtAqV-84" edge="1">
          <mxGeometry relative="1" as="geometry" />
        </mxCell>
        <mxCell id="WzNKcJt7YtytCeeVtAqV-202" style="edgeStyle=orthogonalEdgeStyle;rounded=0;orthogonalLoop=1;jettySize=auto;html=1;exitX=0.5;exitY=0;exitDx=0;exitDy=0;entryX=0;entryY=0.5;entryDx=0;entryDy=0;endArrow=none;endFill=0;" parent="1" source="WzNKcJt7YtytCeeVtAqV-195" target="WzNKcJt7YtytCeeVtAqV-192" edge="1">
          <mxGeometry relative="1" as="geometry" />
        </mxCell>
        <mxCell id="WzNKcJt7YtytCeeVtAqV-195" value="MiembroEquipo" style="rounded=1;arcSize=10;whiteSpace=wrap;html=1;align=center;fontSize=16;fontStyle=1" parent="1" vertex="1">
          <mxGeometry x="390" y="655" width="148.25" height="40" as="geometry" />
        </mxCell>
        <mxCell id="WzNKcJt7YtytCeeVtAqV-239" style="edgeStyle=orthogonalEdgeStyle;rounded=0;orthogonalLoop=1;jettySize=auto;html=1;exitX=1;exitY=0.5;exitDx=0;exitDy=0;entryX=0;entryY=0.75;entryDx=0;entryDy=0;endArrow=none;endFill=0;" parent="1" source="WzNKcJt7YtytCeeVtAqV-196" target="WzNKcJt7YtytCeeVtAqV-157" edge="1">
          <mxGeometry relative="1" as="geometry" />
        </mxCell>
        <mxCell id="WzNKcJt7YtytCeeVtAqV-196" value="fechaFin" style="ellipse;whiteSpace=wrap;html=1;align=center;" parent="1" vertex="1">
          <mxGeometry x="130" y="996" width="70" height="28" as="geometry" />
        </mxCell>
        <mxCell id="WzNKcJt7YtytCeeVtAqV-238" style="edgeStyle=orthogonalEdgeStyle;rounded=0;orthogonalLoop=1;jettySize=auto;html=1;exitX=1;exitY=0.5;exitDx=0;exitDy=0;entryX=0.078;entryY=0.05;entryDx=0;entryDy=0;entryPerimeter=0;endArrow=none;endFill=0;" parent="1" source="WzNKcJt7YtytCeeVtAqV-197" target="WzNKcJt7YtytCeeVtAqV-157" edge="1">
          <mxGeometry relative="1" as="geometry" />
        </mxCell>
        <mxCell id="WzNKcJt7YtytCeeVtAqV-197" value="fechaInicio" style="ellipse;whiteSpace=wrap;html=1;align=center;" parent="1" vertex="1">
          <mxGeometry x="130" y="950" width="70" height="28" as="geometry" />
        </mxCell>
        <mxCell id="WzNKcJt7YtytCeeVtAqV-205" style="edgeStyle=orthogonalEdgeStyle;rounded=0;orthogonalLoop=1;jettySize=auto;html=1;exitX=0;exitY=0.5;exitDx=0;exitDy=0;entryX=0.5;entryY=1;entryDx=0;entryDy=0;endArrow=none;endFill=0;" parent="1" source="WzNKcJt7YtytCeeVtAqV-204" target="WzNKcJt7YtytCeeVtAqV-192" edge="1">
          <mxGeometry relative="1" as="geometry" />
        </mxCell>
        <mxCell id="WzNKcJt7YtytCeeVtAqV-204" value="&lt;font style=&quot;font-size: 19px;&quot;&gt;tipo&lt;/font&gt;" style="ellipse;whiteSpace=wrap;html=1;aspect=fixed;" parent="1" vertex="1">
          <mxGeometry x="550" y="535" width="50" height="50" as="geometry" />
        </mxCell>
        <mxCell id="WzNKcJt7YtytCeeVtAqV-208" value="" style="ellipse;whiteSpace=wrap;html=1;" parent="1" vertex="1">
          <mxGeometry x="300" y="870" width="20" height="20" as="geometry" />
        </mxCell>
        <mxCell id="WzNKcJt7YtytCeeVtAqV-213" style="edgeStyle=orthogonalEdgeStyle;rounded=0;orthogonalLoop=1;jettySize=auto;html=1;exitX=1;exitY=1;exitDx=0;exitDy=0;entryX=0.25;entryY=1;entryDx=0;entryDy=0;endArrow=none;endFill=0;" parent="1" source="WzNKcJt7YtytCeeVtAqV-210" target="WzNKcJt7YtytCeeVtAqV-162" edge="1">
          <mxGeometry relative="1" as="geometry" />
        </mxCell>
        <mxCell id="WzNKcJt7YtytCeeVtAqV-210" value="fechaFin" style="ellipse;whiteSpace=wrap;html=1;align=center;" parent="1" vertex="1">
          <mxGeometry x="870" y="905" width="70" height="28" as="geometry" />
        </mxCell>
        <mxCell id="WzNKcJt7YtytCeeVtAqV-212" style="edgeStyle=orthogonalEdgeStyle;rounded=0;orthogonalLoop=1;jettySize=auto;html=1;exitX=1;exitY=0.5;exitDx=0;exitDy=0;endArrow=none;endFill=0;" parent="1" source="WzNKcJt7YtytCeeVtAqV-211" target="WzNKcJt7YtytCeeVtAqV-162" edge="1">
          <mxGeometry relative="1" as="geometry" />
        </mxCell>
        <mxCell id="WzNKcJt7YtytCeeVtAqV-211" value="fechaInicio" style="ellipse;whiteSpace=wrap;html=1;align=center;" parent="1" vertex="1">
          <mxGeometry x="870" y="871" width="70" height="28" as="geometry" />
        </mxCell>
        <mxCell id="WzNKcJt7YtytCeeVtAqV-215" style="edgeStyle=orthogonalEdgeStyle;rounded=0;orthogonalLoop=1;jettySize=auto;html=1;exitX=1;exitY=0.5;exitDx=0;exitDy=0;entryX=0.5;entryY=0;entryDx=0;entryDy=0;endArrow=none;endFill=0;" parent="1" source="WzNKcJt7YtytCeeVtAqV-214" target="WzNKcJt7YtytCeeVtAqV-182" edge="1">
          <mxGeometry relative="1" as="geometry" />
        </mxCell>
        <mxCell id="WzNKcJt7YtytCeeVtAqV-214" value="&lt;font style=&quot;font-size: 19px;&quot;&gt;tipo&lt;/font&gt;" style="ellipse;whiteSpace=wrap;html=1;aspect=fixed;" parent="1" vertex="1">
          <mxGeometry x="825.25" y="678" width="50" height="50" as="geometry" />
        </mxCell>
        <mxCell id="WzNKcJt7YtytCeeVtAqV-217" style="edgeStyle=orthogonalEdgeStyle;rounded=0;orthogonalLoop=1;jettySize=auto;html=1;exitX=1;exitY=0.5;exitDx=0;exitDy=0;entryX=0.5;entryY=1;entryDx=0;entryDy=0;endArrow=none;endFill=0;" parent="1" source="WzNKcJt7YtytCeeVtAqV-216" target="WzNKcJt7YtytCeeVtAqV-31" edge="1">
          <mxGeometry relative="1" as="geometry" />
        </mxCell>
        <mxCell id="WzNKcJt7YtytCeeVtAqV-218" style="edgeStyle=orthogonalEdgeStyle;rounded=0;orthogonalLoop=1;jettySize=auto;html=1;exitX=0;exitY=0.5;exitDx=0;exitDy=0;entryX=1;entryY=0.5;entryDx=0;entryDy=0;endArrow=none;endFill=0;" parent="1" source="WzNKcJt7YtytCeeVtAqV-216" target="WzNKcJt7YtytCeeVtAqV-162" edge="1">
          <mxGeometry relative="1" as="geometry" />
        </mxCell>
        <mxCell id="WzNKcJt7YtytCeeVtAqV-216" value="&lt;b&gt;&lt;font style=&quot;font-size: 22px;&quot;&gt;N,M&lt;/font&gt;&lt;/b&gt;" style="shape=rhombus;perimeter=rhombusPerimeter;whiteSpace=wrap;html=1;align=center;rotation=-90;" parent="1" vertex="1">
          <mxGeometry x="1090" y="410" width="160" height="50" as="geometry" />
        </mxCell>
        <mxCell id="WzNKcJt7YtytCeeVtAqV-224" value="(0,N)" style="text;strokeColor=none;fillColor=none;html=1;fontSize=24;fontStyle=1;verticalAlign=middle;align=center;rotation=0;" parent="1" vertex="1">
          <mxGeometry x="2050" y="189" width="100" height="40" as="geometry" />
        </mxCell>
        <mxCell id="WzNKcJt7YtytCeeVtAqV-225" value="Profesorado" style="rounded=1;arcSize=10;whiteSpace=wrap;html=1;align=center;fontSize=16;fontStyle=1" parent="1" vertex="1">
          <mxGeometry x="1260" y="577" width="100" height="40" as="geometry" />
        </mxCell>
        <mxCell id="WzNKcJt7YtytCeeVtAqV-226" style="edgeStyle=orthogonalEdgeStyle;rounded=0;orthogonalLoop=1;jettySize=auto;html=1;exitX=1;exitY=0.5;exitDx=0;exitDy=0;entryX=0.5;entryY=1;entryDx=0;entryDy=0;endArrow=none;endFill=0;" parent="1" source="WzNKcJt7YtytCeeVtAqV-227" target="WzNKcJt7YtytCeeVtAqV-225" edge="1">
          <mxGeometry relative="1" as="geometry" />
        </mxCell>
        <mxCell id="WzNKcJt7YtytCeeVtAqV-227" value="" style="triangle;whiteSpace=wrap;html=1;rotation=-90;" parent="1" vertex="1">
          <mxGeometry x="1391" y="662" width="60" height="80" as="geometry" />
        </mxCell>
        <mxCell id="WzNKcJt7YtytCeeVtAqV-228" value="PAS" style="rounded=1;arcSize=10;whiteSpace=wrap;html=1;align=center;fontSize=16;fontStyle=1" parent="1" vertex="1">
          <mxGeometry x="1371" y="577" width="100" height="40" as="geometry" />
        </mxCell>
        <mxCell id="WzNKcJt7YtytCeeVtAqV-229" style="edgeStyle=orthogonalEdgeStyle;rounded=0;orthogonalLoop=1;jettySize=auto;html=1;exitX=1;exitY=0.5;exitDx=0;exitDy=0;entryX=0.5;entryY=1;entryDx=0;entryDy=0;endArrow=none;endFill=0;" parent="1" source="WzNKcJt7YtytCeeVtAqV-227" target="WzNKcJt7YtytCeeVtAqV-228" edge="1">
          <mxGeometry relative="1" as="geometry">
            <mxPoint x="1358.75" y="677" as="sourcePoint" />
            <mxPoint x="1238.75" y="627" as="targetPoint" />
          </mxGeometry>
        </mxCell>
        <mxCell id="WzNKcJt7YtytCeeVtAqV-230" style="edgeStyle=orthogonalEdgeStyle;rounded=0;orthogonalLoop=1;jettySize=auto;html=1;exitX=0.5;exitY=1;exitDx=0;exitDy=0;entryX=1;entryY=0.5;entryDx=0;entryDy=0;endArrow=none;endFill=0;" parent="1" source="WzNKcJt7YtytCeeVtAqV-231" target="WzNKcJt7YtytCeeVtAqV-227" edge="1">
          <mxGeometry relative="1" as="geometry" />
        </mxCell>
        <mxCell id="WzNKcJt7YtytCeeVtAqV-231" value="Alumno" style="rounded=1;arcSize=10;whiteSpace=wrap;html=1;align=center;fontSize=16;fontStyle=1" parent="1" vertex="1">
          <mxGeometry x="1488.5" y="577" width="100" height="40" as="geometry" />
        </mxCell>
        <mxCell id="WzNKcJt7YtytCeeVtAqV-233" style="edgeStyle=orthogonalEdgeStyle;rounded=0;orthogonalLoop=1;jettySize=auto;html=1;exitX=1;exitY=0.5;exitDx=0;exitDy=0;entryX=0.5;entryY=0;entryDx=0;entryDy=0;endArrow=none;endFill=0;" parent="1" source="WzNKcJt7YtytCeeVtAqV-234" target="WzNKcJt7YtytCeeVtAqV-227" edge="1">
          <mxGeometry relative="1" as="geometry" />
        </mxCell>
        <mxCell id="WzNKcJt7YtytCeeVtAqV-234" value="&lt;font style=&quot;font-size: 19px;&quot;&gt;tipo&lt;/font&gt;" style="ellipse;whiteSpace=wrap;html=1;aspect=fixed;" parent="1" vertex="1">
          <mxGeometry x="1303" y="677" width="50" height="50" as="geometry" />
        </mxCell>
        <mxCell id="WzNKcJt7YtytCeeVtAqV-241" style="edgeStyle=orthogonalEdgeStyle;rounded=0;orthogonalLoop=1;jettySize=auto;html=1;exitX=1;exitY=0.5;exitDx=0;exitDy=0;entryX=0.75;entryY=1;entryDx=0;entryDy=0;endArrow=none;endFill=0;" parent="1" source="WzNKcJt7YtytCeeVtAqV-235" target="WzNKcJt7YtytCeeVtAqV-10" edge="1">
          <mxGeometry relative="1" as="geometry" />
        </mxCell>
        <mxCell id="WzNKcJt7YtytCeeVtAqV-242" style="edgeStyle=orthogonalEdgeStyle;rounded=0;orthogonalLoop=1;jettySize=auto;html=1;exitX=0;exitY=0.5;exitDx=0;exitDy=0;entryX=1;entryY=0.75;entryDx=0;entryDy=0;endArrow=none;endFill=0;" parent="1" source="WzNKcJt7YtytCeeVtAqV-235" target="WzNKcJt7YtytCeeVtAqV-163" edge="1">
          <mxGeometry relative="1" as="geometry" />
        </mxCell>
        <mxCell id="WzNKcJt7YtytCeeVtAqV-235" value="&lt;b&gt;&lt;font style=&quot;font-size: 22px;&quot;&gt;N,M&lt;/font&gt;&lt;/b&gt;" style="shape=rhombus;perimeter=rhombusPerimeter;whiteSpace=wrap;html=1;align=center;rotation=-90;" parent="1" vertex="1">
          <mxGeometry x="1840" y="510" width="160" height="50" as="geometry" />
        </mxCell>
        <mxCell id="WzNKcJt7YtytCeeVtAqV-243" value="Responsable" style="rounded=1;arcSize=10;whiteSpace=wrap;html=1;align=center;fontSize=16;fontStyle=1" parent="1" vertex="1">
          <mxGeometry x="1680" y="577" width="190" height="40" as="geometry" />
        </mxCell>
        <mxCell id="WzNKcJt7YtytCeeVtAqV-244" style="edgeStyle=orthogonalEdgeStyle;rounded=0;orthogonalLoop=1;jettySize=auto;html=1;exitX=1;exitY=0.5;exitDx=0;exitDy=0;entryX=0.5;entryY=1;entryDx=0;entryDy=0;endArrow=none;endFill=0;" parent="1" source="WzNKcJt7YtytCeeVtAqV-245" target="WzNKcJt7YtytCeeVtAqV-243" edge="1">
          <mxGeometry relative="1" as="geometry" />
        </mxCell>
        <mxCell id="WzNKcJt7YtytCeeVtAqV-256" style="edgeStyle=orthogonalEdgeStyle;rounded=0;orthogonalLoop=1;jettySize=auto;html=1;exitX=0;exitY=0.5;exitDx=0;exitDy=0;entryX=0.5;entryY=0;entryDx=0;entryDy=0;endArrow=none;endFill=0;" parent="1" source="WzNKcJt7YtytCeeVtAqV-245" target="WzNKcJt7YtytCeeVtAqV-163" edge="1">
          <mxGeometry relative="1" as="geometry" />
        </mxCell>
        <mxCell id="WzNKcJt7YtytCeeVtAqV-245" value="" style="triangle;whiteSpace=wrap;html=1;rotation=-90;" parent="1" vertex="1">
          <mxGeometry x="1743.25" y="658" width="60" height="80" as="geometry" />
        </mxCell>
        <mxCell id="WzNKcJt7YtytCeeVtAqV-255" style="edgeStyle=orthogonalEdgeStyle;rounded=0;orthogonalLoop=1;jettySize=auto;html=1;exitX=0;exitY=0.5;exitDx=0;exitDy=0;entryX=0.25;entryY=0;entryDx=0;entryDy=0;endArrow=none;endFill=0;" parent="1" source="WzNKcJt7YtytCeeVtAqV-254" target="WzNKcJt7YtytCeeVtAqV-243" edge="1">
          <mxGeometry relative="1" as="geometry" />
        </mxCell>
        <mxCell id="WzNKcJt7YtytCeeVtAqV-254" value="&lt;b&gt;&lt;font style=&quot;font-size: 22px;&quot;&gt;1,1&lt;/font&gt;&lt;/b&gt;" style="shape=rhombus;perimeter=rhombusPerimeter;whiteSpace=wrap;html=1;align=center;rotation=-90;" parent="1" vertex="1">
          <mxGeometry x="1581" y="380" width="160" height="50" as="geometry" />
        </mxCell>
        <mxCell id="WzNKcJt7YtytCeeVtAqV-264" style="edgeStyle=orthogonalEdgeStyle;rounded=0;orthogonalLoop=1;jettySize=auto;html=1;exitX=0;exitY=0.5;exitDx=0;exitDy=0;entryX=1;entryY=0.25;entryDx=0;entryDy=0;endArrow=none;endFill=0;" parent="1" source="WzNKcJt7YtytCeeVtAqV-257" target="WzNKcJt7YtytCeeVtAqV-17" edge="1">
          <mxGeometry relative="1" as="geometry" />
        </mxCell>
        <mxCell id="WzNKcJt7YtytCeeVtAqV-257" value="&lt;b&gt;&lt;font style=&quot;font-size: 22px;&quot;&gt;N,M&lt;/font&gt;&lt;/b&gt;" style="shape=rhombus;perimeter=rhombusPerimeter;whiteSpace=wrap;html=1;align=center;rotation=-90;" parent="1" vertex="1">
          <mxGeometry x="2078" y="821" width="160" height="50" as="geometry" />
        </mxCell>
        <mxCell id="WzNKcJt7YtytCeeVtAqV-265" value="(1,N)" style="text;strokeColor=none;fillColor=none;html=1;fontSize=24;fontStyle=1;verticalAlign=middle;align=center;rotation=0;" parent="1" vertex="1">
          <mxGeometry x="840" y="1180" width="100" height="40" as="geometry" />
        </mxCell>
        <mxCell id="WzNKcJt7YtytCeeVtAqV-266" value="(0,N)" style="text;strokeColor=none;fillColor=none;html=1;fontSize=24;fontStyle=1;verticalAlign=middle;align=center;rotation=0;" parent="1" vertex="1">
          <mxGeometry x="2150" y="350" width="100" height="40" as="geometry" />
        </mxCell>
      </root>
    </mxGraphModel>
  </diagram>
</mxfile>
